<?xml version="1.0"?>
<svg version="1.1" xmlns="http://www.w3.org/2000/svg" width="240px" height="50px" style=""><path fill="#222222" d="M2.24609375,22.1435546875l5.55419921875,0q3.79638671875,0,5.511474609375,1.080322265625t1.715087890625,3.436279296875q0,1.59912109375-0.750732421875,2.62451171875t-1.995849609375,1.23291015625l0,0.1220703125q1.69677734375,0.37841796875,2.447509765625,1.416015625t0.750732421875,2.7587890625q0,2.44140625-1.763916015625,3.80859375t-4.791259765625,1.3671875l-6.67724609375,0l0-17.8466796875z M6.0302734375,29.21142578125l2.197265625,0q1.5380859375,0,2.227783203125-0.47607421875t0.689697265625-1.57470703125q0-1.025390625-0.750732421875-1.470947265625t-2.374267578125-0.445556640625l-1.98974609375,0l0,3.96728515625z M6.0302734375,32.21435546875l0,4.65087890625l2.4658203125,0q1.5625,0,2.30712890625-0.59814453125t0.74462890625-1.8310546875q0-2.2216796875-3.173828125-2.2216796875l-2.34375,0z M28.085571289062,26.08642578125q0.7568359375,0,1.25732421875,0.10986328125l-0.28076171875,3.4912109375q-0.45166015625-0.1220703125-1.0986328125-0.1220703125q-1.7822265625,0-2.777099609375,0.91552734375t-0.994873046875,2.5634765625l0,6.94580078125l-3.72314453125,0l0-13.6474609375l2.81982421875,0l0.54931640625,2.294921875l0.18310546875,0q0.634765625-1.1474609375,1.715087890625-1.849365234375t2.349853515625-0.701904296875z M39.191162109375,28.7353515625q-1.18408203125,0-1.85546875,0.750732421875t-0.76904296875,2.130126953125l5.224609375,0q-0.0244140625-1.37939453125-0.72021484375-2.130126953125t-1.8798828125-0.750732421875z M39.716064453125,40.234375q-3.2958984375,0-5.1513671875-1.81884765625t-1.85546875-5.1513671875q0-3.43017578125,1.715087890625-5.303955078125t4.742431640625-1.873779296875q2.89306640625,0,4.50439453125,1.64794921875t1.611328125,4.55322265625l0,1.806640625l-8.80126953125,0q0.06103515625,1.5869140625,0.93994140625,2.47802734375t2.4658203125,0.89111328125q1.23291015625,0,2.33154296875-0.25634765625t2.294921875-0.81787109375l0,2.880859375q-0.9765625,0.48828125-2.08740234375,0.726318359375t-2.7099609375,0.238037109375z M55.680053710938,28.7353515625q-1.18408203125,0-1.85546875,0.750732421875t-0.76904296875,2.130126953125l5.224609375,0q-0.0244140625-1.37939453125-0.72021484375-2.130126953125t-1.8798828125-0.750732421875z M56.204956054688,40.234375q-3.2958984375,0-5.1513671875-1.81884765625t-1.85546875-5.1513671875q0-3.43017578125,1.715087890625-5.303955078125t4.742431640625-1.873779296875q2.89306640625,0,4.50439453125,1.64794921875t1.611328125,4.55322265625l0,1.806640625l-8.80126953125,0q0.06103515625,1.5869140625,0.93994140625,2.47802734375t2.4658203125,0.89111328125q1.23291015625,0,2.33154296875-0.25634765625t2.294921875-0.81787109375l0,2.880859375q-0.9765625,0.48828125-2.08740234375,0.726318359375t-2.7099609375,0.238037109375z M76.01416015625,39.990234375l-10.77880859375,0l0-2.197265625l6.3232421875-8.60595703125l-5.94482421875,0l0-2.84423828125l10.1806640625,0l0,2.4169921875l-6.15234375,8.38623046875l6.3720703125,0l0,2.84423828125z M86.082153320312,28.7353515625q-1.18408203125,0-1.85546875,0.750732421875t-0.76904296875,2.130126953125l5.224609375,0q-0.0244140625-1.37939453125-0.72021484375-2.130126953125t-1.8798828125-0.750732421875z M86.607055664062,40.234375q-3.2958984375,0-5.1513671875-1.81884765625t-1.85546875-5.1513671875q0-3.43017578125,1.715087890625-5.303955078125t4.742431640625-1.873779296875q2.89306640625,0,4.50439453125,1.64794921875t1.611328125,4.55322265625l0,1.806640625l-8.80126953125,0q0.06103515625,1.5869140625,0.93994140625,2.47802734375t2.4658203125,0.89111328125q1.23291015625,0,2.33154296875-0.25634765625t2.294921875-0.81787109375l0,2.880859375q-0.9765625,0.48828125-2.08740234375,0.726318359375t-2.7099609375,0.238037109375z"/><path fill="#3fd0d4" d="M106.02099609375,29.96826171875l7.080078125,0l0,9.2529296875q-1.72119140625,0.5615234375-3.240966796875,0.787353515625t-3.106689453125,0.225830078125q-4.04052734375,0-6.170654296875-2.374267578125t-2.130126953125-6.817626953125q0-4.3212890625,2.471923828125-6.73828125t6.854248046875-2.4169921875q2.74658203125,0,5.2978515625,1.0986328125l-1.25732421875,3.02734375q-1.953125-0.9765625-4.06494140625-0.9765625q-2.45361328125,0-3.9306640625,1.64794921875t-1.47705078125,4.43115234375q0,2.9052734375,1.190185546875,4.437255859375t3.460693359375,1.531982421875q1.18408203125,0,2.40478515625-0.244140625l0-3.72314453125l-3.38134765625,0l0-3.1494140625z M124.42639160156,28.7353515625q-1.18408203125,0-1.85546875,0.750732421875t-0.76904296875,2.130126953125l5.224609375,0q-0.0244140625-1.37939453125-0.72021484375-2.130126953125t-1.8798828125-0.750732421875z M124.95129394531,40.234375q-3.2958984375,0-5.1513671875-1.81884765625t-1.85546875-5.1513671875q0-3.43017578125,1.715087890625-5.303955078125t4.742431640625-1.873779296875q2.89306640625,0,4.50439453125,1.64794921875t1.611328125,4.55322265625l0,1.806640625l-8.80126953125,0q0.06103515625,1.5869140625,0.93994140625,2.47802734375t2.4658203125,0.89111328125q1.23291015625,0,2.33154296875-0.25634765625t2.294921875-0.81787109375l0,2.880859375q-0.9765625,0.48828125-2.08740234375,0.726318359375t-2.7099609375,0.238037109375z M141.01293945312,37.26806640625q0.9765625,0,2.34375-0.42724609375l0,2.77099609375q-1.3916015625,0.62255859375-3.41796875,0.62255859375q-2.23388671875,0-3.253173828125-1.129150390625t-1.019287109375-3.387451171875l0-6.57958984375l-1.7822265625,0l0-1.57470703125l2.05078125-1.2451171875l1.07421875-2.880859375l2.38037109375,0l0,2.9052734375l3.82080078125,0l0,2.79541015625l-3.82080078125,0l0,6.57958984375q0,0.79345703125,0.445556640625,1.171875t1.177978515625,0.37841796875z M156.50085449219,39.990234375l-0.72021484375-1.85546875l-0.09765625,0q-0.93994140625,1.18408203125-1.934814453125,1.641845703125t-2.593994140625,0.457763671875q-1.96533203125,0-3.094482421875-1.123046875t-1.129150390625-3.1982421875q0-2.1728515625,1.519775390625-3.204345703125t4.583740234375-1.141357421875l2.3681640625-0.0732421875l0-0.59814453125q0-2.0751953125-2.1240234375-2.0751953125q-1.6357421875,0-3.84521484375,0.98876953125l-1.23291015625-2.5146484375q2.35595703125-1.23291015625,5.224609375-1.23291015625q2.74658203125,0,4.21142578125,1.1962890625t1.46484375,3.6376953125l0,9.09423828125l-2.60009765625,0z M155.40222167969,33.6669921875l-1.4404296875,0.048828125q-1.62353515625,0.048828125-2.4169921875,0.5859375t-0.79345703125,1.6357421875q0,1.57470703125,1.806640625,1.57470703125q1.2939453125,0,2.069091796875-0.74462890625t0.775146484375-1.9775390625l0-1.123046875z M175.87060546875,39.990234375l-1.0498046875-4.77294921875l-1.416015625-6.0302734375l-0.08544921875,0l-2.490234375,10.80322265625l-4.00390625,0l-3.8818359375-13.6474609375l3.7109375,0l1.57470703125,6.04248046875q0.37841796875,1.62353515625,0.76904296875,4.47998046875l0.0732421875,0q0.048828125-0.927734375,0.42724609375-2.94189453125l0.1953125-1.03759765625l1.6845703125-6.54296875l4.1015625,0l1.59912109375,6.54296875q0.048828125,0.2685546875,0.152587890625,0.79345703125t0.201416015625,1.116943359375t0.177001953125,1.15966796875t0.091552734375,0.909423828125l0.0732421875,0q0.10986328125-0.87890625,0.390625-2.410888671875t0.40283203125-2.069091796875l1.6357421875-6.04248046875l3.64990234375,0l-3.9306640625,13.6474609375l-4.052734375,0z M196.43664550781,39.990234375l-0.72021484375-1.85546875l-0.09765625,0q-0.93994140625,1.18408203125-1.934814453125,1.641845703125t-2.593994140625,0.457763671875q-1.96533203125,0-3.094482421875-1.123046875t-1.129150390625-3.1982421875q0-2.1728515625,1.519775390625-3.204345703125t4.583740234375-1.141357421875l2.3681640625-0.0732421875l0-0.59814453125q0-2.0751953125-2.1240234375-2.0751953125q-1.6357421875,0-3.84521484375,0.98876953125l-1.23291015625-2.5146484375q2.35595703125-1.23291015625,5.224609375-1.23291015625q2.74658203125,0,4.21142578125,1.1962890625t1.46484375,3.6376953125l0,9.09423828125l-2.60009765625,0z M195.33801269531,33.6669921875l-1.4404296875,0.048828125q-1.62353515625,0.048828125-2.4169921875,0.5859375t-0.79345703125,1.6357421875q0,1.57470703125,1.806640625,1.57470703125q1.2939453125,0,2.069091796875-0.74462890625t0.775146484375-1.9775390625l0-1.123046875z M202.63500976562,26.3427734375l4.0771484375,0l2.57568359375,7.67822265625q0.32958984375,1.0009765625,0.45166015625,2.3681640625l0.0732421875,0q0.13427734375-1.25732421875,0.52490234375-2.3681640625l2.52685546875-7.67822265625l3.99169921875,0l-5.77392578125,15.39306640625q-0.79345703125,2.13623046875-2.264404296875,3.1982421875t-3.436279296875,1.06201171875q-0.96435546875,0-1.89208984375-0.20751953125l0-2.9541015625q0.67138671875,0.15869140625,1.46484375,0.15869140625q0.98876953125,0,1.727294921875-0.604248046875t1.153564453125-1.824951171875l0.2197265625-0.67138671875z M230.04919433594,35.9375q0,2.099609375-1.458740234375,3.1982421875t-4.364013671875,1.0986328125q-1.4892578125,0-2.5390625-0.201416015625t-1.96533203125-0.592041015625l0-3.076171875q1.03759765625,0.48828125,2.337646484375,0.81787109375t2.288818359375,0.32958984375q2.0263671875,0,2.0263671875-1.171875q0-0.439453125-0.2685546875-0.714111328125t-0.927734375-0.62255859375t-1.7578125-0.811767578125q-1.57470703125-0.6591796875-2.313232421875-1.220703125t-1.07421875-1.287841796875t-0.335693359375-1.788330078125q0-1.81884765625,1.409912109375-2.813720703125t3.997802734375-0.994873046875q2.4658203125,0,4.79736328125,1.07421875l-1.123046875,2.685546875q-1.025390625-0.439453125-1.91650390625-0.72021484375t-1.81884765625-0.28076171875q-1.64794921875,0-1.64794921875,0.89111328125q0,0.50048828125,0.531005859375,0.86669921875t2.325439453125,1.08642578125q1.59912109375,0.64697265625,2.34375,1.20849609375t1.0986328125,1.2939453125t0.35400390625,1.74560546875z"/></svg>
